<svg width="560" height="380" viewBox="0 0 560 380" fill="none" xmlns="http://www.w3.org/2000/svg">
  <defs>
    <linearGradient id="a" x1="40" y1="30" x2="500" y2="330" gradientUnits="userSpaceOnUse">
      <stop stop-color="#14B8A6"/>
      <stop offset="0.5" stop-color="#8B5CF6"/>
      <stop offset="1" stop-color="#F472B6"/>
    </linearGradient>
  </defs>
  <rect width="560" height="380" rx="30" fill="#10142D"/>
  <circle cx="112" cy="92" r="72" fill="#14B8A6" fill-opacity="0.2"/>
  <circle cx="474" cy="76" r="88" fill="#8B5CF6" fill-opacity="0.16"/>
  <rect x="70" y="126" width="186" height="168" rx="26" fill="white" fill-opacity="0.08" stroke="white" stroke-opacity="0.14"/>
  <rect x="100" y="154" width="126" height="12" rx="6" fill="white" fill-opacity="0.86"/>
  <rect x="100" y="178" width="96" height="10" rx="5" fill="white" fill-opacity="0.42"/>
  <rect x="100" y="210" width="126" height="54" rx="18" fill="url(#a)"/>
  <rect x="286" y="102" width="206" height="96" rx="24" fill="#F8FAFF" fill-opacity="0.9"/>
  <rect x="316" y="132" width="120" height="12" rx="6" fill="#0A0D22" fill-opacity="0.18"/>
  <rect x="316" y="152" width="88" height="10" rx="5" fill="#0A0D22" fill-opacity="0.12"/>
  <rect x="286" y="224" width="206" height="92" rx="24" fill="white" fill-opacity="0.07" stroke="white" stroke-opacity="0.12"/>
  <path d="M316 262H446" stroke="#60A5FA" stroke-width="12" stroke-linecap="round"/>
  <path d="M316 286H390" stroke="#F472B6" stroke-width="12" stroke-linecap="round"/>
</svg>