<svg width="720" height="520" viewBox="0 0 720 520" fill="none" xmlns="http://www.w3.org/2000/svg">
  <defs>
    <linearGradient id="g1" x1="90" y1="70" x2="630" y2="450" gradientUnits="userSpaceOnUse">
      <stop stop-color="#14B8A6"/>
      <stop offset="0.55" stop-color="#8B5CF6"/>
      <stop offset="1" stop-color="#F472B6"/>
    </linearGradient>
    <linearGradient id="g2" x1="130" y1="90" x2="580" y2="430" gradientUnits="userSpaceOnUse">
      <stop stop-color="#FFFFFF" stop-opacity="0.95"/>
      <stop offset="1" stop-color="#D6E4FF" stop-opacity="0.95"/>
    </linearGradient>
  </defs>
  <rect width="720" height="520" rx="36" fill="#0A0D22"/>
  <circle cx="146" cy="130" r="118" fill="url(#g1)" fill-opacity="0.85"/>
  <circle cx="585" cy="110" r="138" fill="#60A5FA" fill-opacity="0.16"/>
  <path d="M86 344C168 280 250 246 336 250C426 254 492 290 636 232V472H86V344Z" fill="url(#g1)" fill-opacity="0.36"/>
  <rect x="190" y="104" width="356" height="236" rx="28" fill="white" fill-opacity="0.08" stroke="white" stroke-opacity="0.14"/>
  <rect x="224" y="138" width="156" height="18" rx="9" fill="white" fill-opacity="0.82"/>
  <rect x="224" y="168" width="220" height="12" rx="6" fill="white" fill-opacity="0.5"/>
  <rect x="224" y="190" width="184" height="12" rx="6" fill="white" fill-opacity="0.36"/>
  <rect x="224" y="226" width="128" height="38" rx="19" fill="#14B8A6"/>
  <rect x="362" y="226" width="92" height="38" rx="19" fill="white" fill-opacity="0.12" stroke="white" stroke-opacity="0.18"/>
  <circle cx="502" cy="220" r="48" fill="url(#g2)"/>
  <path d="M486 212L520 220L486 228V212Z" fill="#0A0D22"/>
  <rect x="138" y="338" width="168" height="126" rx="24" fill="#F8FAFF" fill-opacity="0.92"/>
  <rect x="168" y="366" width="104" height="10" rx="5" fill="#0A0D22" fill-opacity="0.2"/>
  <rect x="168" y="386" width="88" height="10" rx="5" fill="#0A0D22" fill-opacity="0.14"/>
  <rect x="168" y="410" width="68" height="30" rx="15" fill="#8B5CF6"/>
  <rect x="332" y="356" width="248" height="100" rx="26" fill="#0A0D22" fill-opacity="0.34" stroke="white" stroke-opacity="0.12"/>
  <rect x="362" y="382" width="128" height="12" rx="6" fill="#F8FAFF" fill-opacity="0.88"/>
  <rect x="362" y="404" width="172" height="10" rx="5" fill="#F8FAFF" fill-opacity="0.5"/>
</svg>